<svg width="1024" height="1024" viewBox="0 0 1024 1024" fill="none" xmlns="http://www.w3.org/2000/svg">
  <rect width="1024" height="1024" rx="216" fill="#08090d"/>
  <circle cx="512" cy="472" r="394" fill="#12151e"/>
  <circle cx="512" cy="472" r="288" fill="#090a10"/>
  <path d="M255 208C334 154 433 124 538 130C650 136 750 180 824 248L782 326C721 272 640 239 550 233C456 228 368 252 298 299L255 208Z" fill="#242935"/>
  <path d="M204 762C279 846 390 895 512 895C637 895 748 842 824 758L781 684C720 750 624 792 512 792C402 792 307 752 246 687L204 762Z" fill="#191d27"/>
  <g transform="translate(512 528.5) scale(0.82) translate(-512 -528.5)">
    <path d="M282 276L415 276L512 642L609 276L742 276L574 781H450L282 276Z" fill="#f5c84b"/>
    <path d="M393 332L512 723L631 332H684L552 735C539 774 485 774 472 735L340 332H393Z" fill="#ffe08a" fill-opacity="0.78"/>
    <path d="M407 276H282L450 781H512L407 276Z" fill="#b58a13" fill-opacity="0.92"/>
    <path d="M617 276H742L574 781H512L617 276Z" fill="#ddb032"/>
  </g>
  <path d="M384 214H640V262H384V214Z" fill="#373d4b"/>
  <path d="M384 214H424V262H384V214ZM472 214H512V262H472V214ZM560 214H600V262H560V214Z" fill="#08090d"/>
  <path d="M352 827H672V875H352V827Z" fill="#2a303d"/>
  <path d="M392 827H432V875H392V827ZM492 827H532V875H492V827ZM592 827H632V875H592V827Z" fill="#08090d"/>
</svg>
